<svg xmlns="http://www.w3.org/2000/svg" xmlns:xlink="http://www.w3.org/1999/xlink" width="1024" zoomAndPan="magnify" viewBox="0 0 768 767.999994" height="1024" preserveAspectRatio="xMidYMid meet" version="1.2"><defs/><g id="086531d9e7"><g style="fill:#ffde59;fill-opacity:1;"><g transform="translate(107.901342, 374.411032)"><path style="stroke:none" d="M 22.09375 -14.765625 C 10.925781 -26.941406 5.34375 -41.867188 5.34375 -59.546875 C 5.34375 -77.222656 10.925781 -92.1875 22.09375 -104.4375 C 33.257812 -116.6875 47.453125 -122.8125 64.671875 -122.8125 C 80.484375 -122.8125 93.507812 -117.851562 103.75 -107.9375 L 103.75 -200.046875 L 144.921875 -200.046875 L 144.921875 0 L 104.203125 0 L 104.203125 -13.484375 L 103.75 -13.484375 C 93.507812 -2.171875 80.484375 3.484375 64.671875 3.484375 C 47.453125 3.484375 33.257812 -2.597656 22.09375 -14.765625 Z M 57.09375 -79.78125 C 51.75 -74.507812 49.078125 -67.765625 49.078125 -59.546875 C 49.078125 -51.328125 51.632812 -44.617188 56.75 -39.421875 C 61.875 -34.234375 68.625 -31.640625 77 -31.640625 C 85.0625 -31.640625 91.6875 -34.273438 96.875 -39.546875 C 102.070312 -44.816406 104.671875 -51.484375 104.671875 -59.546875 C 104.671875 -67.765625 101.992188 -74.507812 96.640625 -79.78125 C 91.296875 -85.050781 84.75 -87.6875 77 -87.6875 C 69.082031 -87.6875 62.445312 -85.050781 57.09375 -79.78125 Z M 57.09375 -79.78125 "/></g></g><g style="fill:#ffde59;fill-opacity:1;"><g transform="translate(244.910745, 374.411032)"><path style="stroke:none" d="M 22.09375 -14.765625 C 10.925781 -26.941406 5.34375 -41.867188 5.34375 -59.546875 C 5.34375 -77.222656 10.925781 -92.1875 22.09375 -104.4375 C 33.257812 -116.6875 47.453125 -122.8125 64.671875 -122.8125 C 80.484375 -122.8125 93.507812 -117.851562 103.75 -107.9375 L 103.75 -119.328125 L 144.921875 -119.328125 L 144.921875 0 L 104.203125 0 L 104.203125 -13.484375 L 103.75 -13.484375 C 93.507812 -2.171875 80.484375 3.484375 64.671875 3.484375 C 47.453125 3.484375 33.257812 -2.597656 22.09375 -14.765625 Z M 57.09375 -79.78125 C 51.75 -74.507812 49.078125 -67.765625 49.078125 -59.546875 C 49.078125 -51.328125 51.632812 -44.617188 56.75 -39.421875 C 61.875 -34.234375 68.625 -31.640625 77 -31.640625 C 85.0625 -31.640625 91.6875 -34.273438 96.875 -39.546875 C 102.070312 -44.816406 104.671875 -51.484375 104.671875 -59.546875 C 104.671875 -67.765625 101.992188 -74.507812 96.640625 -79.78125 C 91.296875 -85.050781 84.75 -87.6875 77 -87.6875 C 69.082031 -87.6875 62.445312 -85.050781 57.09375 -79.78125 Z M 57.09375 -79.78125 "/></g></g><g style="fill:#ffde59;fill-opacity:1;"><g transform="translate(381.920149, 374.411032)"><path style="stroke:none" d="M 17.90625 -185.84375 C 22.71875 -190.65625 28.457031 -193.0625 35.125 -193.0625 C 41.789062 -193.0625 47.523438 -190.65625 52.328125 -185.84375 C 57.140625 -181.039062 59.546875 -175.304688 59.546875 -168.640625 C 59.546875 -161.972656 57.140625 -156.234375 52.328125 -151.421875 C 47.523438 -146.617188 41.789062 -144.21875 35.125 -144.21875 C 28.457031 -144.21875 22.71875 -146.617188 17.90625 -151.421875 C 13.101562 -156.234375 10.703125 -161.972656 10.703125 -168.640625 C 10.703125 -175.304688 13.101562 -181.039062 17.90625 -185.84375 Z M 13.953125 -119.328125 L 13.953125 0 L 55.125 0 L 55.125 -119.328125 Z M 13.953125 -119.328125 "/></g></g><g style="fill:#ffde59;fill-opacity:1;"><g transform="translate(430.303551, 374.411032)"><path style="stroke:none" d="M 65.828125 -122.8125 C 72.648438 -122.8125 79.394531 -122.035156 86.0625 -120.484375 C 92.726562 -118.941406 97.691406 -117.394531 100.953125 -115.84375 L 105.84375 -113.515625 L 92.34375 -86.53125 C 83.039062 -91.488281 74.203125 -93.96875 65.828125 -93.96875 C 61.171875 -93.96875 57.875 -93.460938 55.9375 -92.453125 C 54 -91.453125 53.03125 -89.554688 53.03125 -86.765625 C 53.03125 -86.140625 53.109375 -85.515625 53.265625 -84.890625 C 53.421875 -84.273438 53.726562 -83.695312 54.1875 -83.15625 C 54.65625 -82.613281 55.082031 -82.148438 55.46875 -81.765625 C 55.863281 -81.378906 56.523438 -80.953125 57.453125 -80.484375 C 58.378906 -80.015625 59.113281 -79.664062 59.65625 -79.4375 C 60.207031 -79.207031 61.101562 -78.859375 62.34375 -78.390625 C 63.582031 -77.921875 64.507812 -77.570312 65.125 -77.34375 C 65.75 -77.113281 66.796875 -76.765625 68.265625 -76.296875 C 69.742188 -75.828125 70.867188 -75.515625 71.640625 -75.359375 C 76.453125 -73.960938 80.640625 -72.410156 84.203125 -70.703125 C 87.765625 -69.003906 91.523438 -66.679688 95.484375 -63.734375 C 99.441406 -60.785156 102.503906 -57.0625 104.671875 -52.5625 C 106.847656 -48.070312 107.9375 -42.957031 107.9375 -37.21875 C 107.9375 -10.082031 89.09375 3.484375 51.40625 3.484375 C 42.875 3.484375 34.769531 2.164062 27.09375 -0.46875 C 19.414062 -3.101562 13.875 -5.738281 10.46875 -8.375 L 5.34375 -12.5625 L 22.09375 -40.703125 C 23.332031 -39.617188 24.957031 -38.335938 26.96875 -36.859375 C 28.988281 -35.390625 32.632812 -33.375 37.90625 -30.8125 C 43.1875 -28.257812 47.765625 -26.984375 51.640625 -26.984375 C 60.171875 -26.984375 64.4375 -29.851562 64.4375 -35.59375 C 64.4375 -38.226562 63.347656 -40.28125 61.171875 -41.75 C 59.003906 -43.226562 55.320312 -44.894531 50.125 -46.75 C 44.925781 -48.613281 40.859375 -50.320312 37.921875 -51.875 C 30.472656 -55.75 24.578125 -60.128906 20.234375 -65.015625 C 15.890625 -69.898438 13.71875 -76.375 13.71875 -84.4375 C 13.71875 -96.53125 18.410156 -105.945312 27.796875 -112.6875 C 37.179688 -119.4375 49.859375 -122.8125 65.828125 -122.8125 Z M 65.828125 -122.8125 "/></g></g><g style="fill:#ffde59;fill-opacity:1;"><g transform="translate(522.883621, 374.411032)"><path style="stroke:none" d="M 104.4375 -119.328125 L 151.890625 -119.328125 L 58.15625 60.484375 L 10.703125 60.484375 L 51.875 -18.609375 L -4.65625 -119.328125 L 42.796875 -119.328125 L 76.0625 -58.15625 Z M 104.4375 -119.328125 "/></g></g><g style="fill:#ffde59;fill-opacity:1;"><g transform="translate(648.262296, 374.411032)"><path style="stroke:none" d="M 40.46875 -49.78125 C 47.914062 -49.78125 54.234375 -47.179688 59.421875 -41.984375 C 64.617188 -36.785156 67.21875 -30.46875 67.21875 -23.03125 C 67.21875 -15.738281 64.617188 -9.492188 59.421875 -4.296875 C 54.234375 0.890625 47.914062 3.484375 40.46875 3.484375 C 33.1875 3.484375 26.945312 0.890625 21.75 -4.296875 C 16.550781 -9.492188 13.953125 -15.738281 13.953125 -23.03125 C 13.953125 -30.46875 16.550781 -36.785156 21.75 -41.984375 C 26.945312 -47.179688 33.1875 -49.78125 40.46875 -49.78125 Z M 40.46875 -49.78125 "/></g></g><g style="fill:#000000;fill-opacity:1;"><g transform="translate(32.449219, 412.358461)"><path style="stroke:none" d="M 14.78125 -11.5625 C 16.132812 -11.5625 17.128906 -11.144531 17.765625 -10.3125 C 18.398438 -9.476562 18.71875 -8.378906 18.71875 -7.015625 L 18.71875 -0.671875 C 18.71875 -0.472656 18.648438 -0.3125 18.515625 -0.1875 C 18.390625 -0.0625 18.234375 0 18.046875 0 C 17.847656 0 17.679688 -0.0625 17.546875 -0.1875 C 17.421875 -0.3125 17.359375 -0.472656 17.359375 -0.671875 L 17.359375 -6.953125 C 17.359375 -7.941406 17.125 -8.742188 16.65625 -9.359375 C 16.1875 -9.984375 15.457031 -10.296875 14.46875 -10.296875 C 13.84375 -10.296875 13.25 -10.144531 12.6875 -9.84375 C 12.125 -9.550781 11.671875 -9.144531 11.328125 -8.625 C 10.984375 -8.113281 10.8125 -7.554688 10.8125 -6.953125 L 10.8125 -0.671875 C 10.8125 -0.472656 10.75 -0.3125 10.625 -0.1875 C 10.5 -0.0625 10.335938 0 10.140625 0 C 9.941406 0 9.78125 -0.0625 9.65625 -0.1875 C 9.53125 -0.3125 9.46875 -0.472656 9.46875 -0.671875 L 9.46875 -7.015625 C 9.46875 -7.992188 9.242188 -8.785156 8.796875 -9.390625 C 8.347656 -9.992188 7.644531 -10.296875 6.6875 -10.296875 C 6.070312 -10.296875 5.488281 -10.144531 4.9375 -9.84375 C 4.394531 -9.550781 3.957031 -9.148438 3.625 -8.640625 C 3.289062 -8.140625 3.125 -7.597656 3.125 -7.015625 L 3.125 -0.671875 C 3.125 -0.472656 3.054688 -0.3125 2.921875 -0.1875 C 2.796875 -0.0625 2.640625 0 2.453125 0 C 2.253906 0 2.085938 -0.0625 1.953125 -0.1875 C 1.828125 -0.3125 1.765625 -0.472656 1.765625 -0.671875 L 1.765625 -10.71875 C 1.765625 -10.914062 1.828125 -11.078125 1.953125 -11.203125 C 2.085938 -11.328125 2.253906 -11.390625 2.453125 -11.390625 C 2.640625 -11.390625 2.796875 -11.328125 2.921875 -11.203125 C 3.054688 -11.078125 3.125 -10.914062 3.125 -10.71875 L 3.125 -9.421875 C 3.519531 -10.035156 4.0625 -10.546875 4.75 -10.953125 C 5.4375 -11.359375 6.164062 -11.5625 6.9375 -11.5625 C 7.800781 -11.5625 8.546875 -11.347656 9.171875 -10.921875 C 9.804688 -10.503906 10.253906 -9.894531 10.515625 -9.09375 C 10.835938 -9.75 11.414062 -10.320312 12.25 -10.8125 C 13.082031 -11.3125 13.925781 -11.5625 14.78125 -11.5625 Z M 14.78125 -11.5625 "/></g></g><g style="fill:#000000;fill-opacity:1;"><g transform="translate(67.543844, 412.358461)"><path style="stroke:none" d="M 11.46875 -6.390625 C 11.46875 -6.210938 11.398438 -6.0625 11.265625 -5.9375 C 11.128906 -5.8125 10.972656 -5.75 10.796875 -5.75 L 2.3125 -5.75 C 2.3125 -4.84375 2.492188 -4.035156 2.859375 -3.328125 C 3.222656 -2.617188 3.742188 -2.054688 4.421875 -1.640625 C 5.109375 -1.234375 5.914062 -1.03125 6.84375 -1.03125 C 7.5625 -1.03125 8.203125 -1.175781 8.765625 -1.46875 C 9.335938 -1.769531 9.796875 -2.15625 10.140625 -2.625 C 10.304688 -2.757812 10.460938 -2.828125 10.609375 -2.828125 C 10.765625 -2.828125 10.898438 -2.765625 11.015625 -2.640625 C 11.140625 -2.523438 11.203125 -2.394531 11.203125 -2.25 C 11.203125 -2.082031 11.125 -1.921875 10.96875 -1.765625 C 10.488281 -1.179688 9.882812 -0.703125 9.15625 -0.328125 C 8.4375 0.0351562 7.671875 0.21875 6.859375 0.21875 C 5.710938 0.21875 4.695312 -0.0234375 3.8125 -0.515625 C 2.925781 -1.003906 2.238281 -1.691406 1.75 -2.578125 C 1.257812 -3.472656 1.015625 -4.503906 1.015625 -5.671875 C 1.015625 -6.898438 1.253906 -7.972656 1.734375 -8.890625 C 2.222656 -9.816406 2.867188 -10.519531 3.671875 -11 C 4.484375 -11.488281 5.347656 -11.734375 6.265625 -11.734375 C 7.160156 -11.734375 8 -11.523438 8.78125 -11.109375 C 9.570312 -10.691406 10.210938 -10.078125 10.703125 -9.265625 C 11.191406 -8.460938 11.445312 -7.503906 11.46875 -6.390625 Z M 6.265625 -10.4375 C 5.390625 -10.4375 4.582031 -10.132812 3.84375 -9.53125 C 3.101562 -8.9375 2.628906 -8.078125 2.421875 -6.953125 L 10.078125 -6.953125 L 10.078125 -7.140625 C 10.003906 -7.804688 9.78125 -8.390625 9.40625 -8.890625 C 9.03125 -9.390625 8.5625 -9.769531 8 -10.03125 C 7.4375 -10.300781 6.859375 -10.4375 6.265625 -10.4375 Z M 6.265625 -10.4375 "/></g></g><g style="fill:#000000;fill-opacity:1;"><g transform="translate(94.650145, 412.358461)"><path style="stroke:none" d="M 11.078125 -16.609375 C 11.273438 -16.609375 11.4375 -16.539062 11.5625 -16.40625 C 11.6875 -16.28125 11.75 -16.125 11.75 -15.9375 L 11.75 -0.671875 C 11.75 -0.472656 11.6875 -0.3125 11.5625 -0.1875 C 11.4375 -0.0625 11.273438 0 11.078125 0 C 10.890625 0 10.726562 -0.0625 10.59375 -0.1875 C 10.46875 -0.3125 10.40625 -0.472656 10.40625 -0.671875 L 10.40625 -2.25 C 10.03125 -1.5625 9.472656 -0.976562 8.734375 -0.5 C 7.992188 -0.0195312 7.175781 0.21875 6.28125 0.21875 C 5.289062 0.21875 4.394531 -0.0351562 3.59375 -0.546875 C 2.800781 -1.066406 2.171875 -1.78125 1.703125 -2.6875 C 1.242188 -3.601562 1.015625 -4.628906 1.015625 -5.765625 C 1.015625 -6.890625 1.242188 -7.90625 1.703125 -8.8125 C 2.171875 -9.726562 2.800781 -10.441406 3.59375 -10.953125 C 4.394531 -11.472656 5.285156 -11.734375 6.265625 -11.734375 C 7.140625 -11.734375 7.953125 -11.507812 8.703125 -11.0625 C 9.453125 -10.625 10.019531 -10.054688 10.40625 -9.359375 L 10.40625 -15.9375 C 10.40625 -16.125 10.46875 -16.28125 10.59375 -16.40625 C 10.726562 -16.539062 10.890625 -16.609375 11.078125 -16.609375 Z M 6.421875 -1.03125 C 7.191406 -1.03125 7.890625 -1.234375 8.515625 -1.640625 C 9.140625 -2.046875 9.625 -2.609375 9.96875 -3.328125 C 10.320312 -4.054688 10.5 -4.867188 10.5 -5.765625 C 10.5 -6.648438 10.320312 -7.453125 9.96875 -8.171875 C 9.625 -8.890625 9.140625 -9.453125 8.515625 -9.859375 C 7.890625 -10.273438 7.191406 -10.484375 6.421875 -10.484375 C 5.640625 -10.484375 4.9375 -10.273438 4.3125 -9.859375 C 3.695312 -9.453125 3.210938 -8.890625 2.859375 -8.171875 C 2.503906 -7.453125 2.328125 -6.648438 2.328125 -5.765625 C 2.328125 -4.867188 2.503906 -4.0625 2.859375 -3.34375 C 3.210938 -2.625 3.695312 -2.054688 4.3125 -1.640625 C 4.9375 -1.234375 5.640625 -1.03125 6.421875 -1.03125 Z M 6.421875 -1.03125 "/></g></g><g style="fill:#000000;fill-opacity:1;"><g transform="translate(122.78864, 412.358461)"><path style="stroke:none" d="M 3.078125 -0.671875 C 3.078125 -0.472656 3.007812 -0.3125 2.875 -0.1875 C 2.75 -0.0625 2.59375 0 2.40625 0 C 2.207031 0 2.046875 -0.0625 1.921875 -0.1875 C 1.796875 -0.3125 1.734375 -0.472656 1.734375 -0.671875 L 1.734375 -11 C 1.734375 -11.1875 1.796875 -11.34375 1.921875 -11.46875 C 2.046875 -11.601562 2.207031 -11.671875 2.40625 -11.671875 C 2.59375 -11.671875 2.75 -11.601562 2.875 -11.46875 C 3.007812 -11.34375 3.078125 -11.1875 3.078125 -11 Z M 2.390625 -13.171875 C 2.097656 -13.171875 1.867188 -13.242188 1.703125 -13.390625 C 1.535156 -13.535156 1.453125 -13.742188 1.453125 -14.015625 L 1.453125 -14.234375 C 1.453125 -14.503906 1.535156 -14.707031 1.703125 -14.84375 C 1.878906 -14.988281 2.117188 -15.0625 2.421875 -15.0625 C 3.015625 -15.0625 3.3125 -14.785156 3.3125 -14.234375 L 3.3125 -14.015625 C 3.3125 -13.742188 3.234375 -13.535156 3.078125 -13.390625 C 2.921875 -13.242188 2.691406 -13.171875 2.390625 -13.171875 Z M 2.390625 -13.171875 "/></g></g><g style="fill:#000000;fill-opacity:1;"><g transform="translate(142.220787, 412.358461)"><path style="stroke:none" d="M 6.734375 -11.734375 C 7.429688 -11.734375 8.082031 -11.65625 8.6875 -11.5 C 9.300781 -11.34375 9.789062 -11.128906 10.15625 -10.859375 C 10.519531 -10.585938 10.703125 -10.296875 10.703125 -9.984375 C 10.703125 -9.816406 10.644531 -9.664062 10.53125 -9.53125 C 10.414062 -9.394531 10.28125 -9.328125 10.125 -9.328125 C 9.96875 -9.328125 9.84375 -9.359375 9.75 -9.421875 C 9.65625 -9.484375 9.546875 -9.570312 9.421875 -9.6875 C 9.222656 -9.882812 9.035156 -10.03125 8.859375 -10.125 C 8.640625 -10.226562 8.34375 -10.3125 7.96875 -10.375 C 7.601562 -10.445312 7.210938 -10.484375 6.796875 -10.484375 C 5.972656 -10.484375 5.21875 -10.269531 4.53125 -9.84375 C 3.851562 -9.425781 3.320312 -8.859375 2.9375 -8.140625 C 2.550781 -7.421875 2.359375 -6.628906 2.359375 -5.765625 C 2.359375 -4.867188 2.546875 -4.0625 2.921875 -3.34375 C 3.296875 -2.625 3.8125 -2.054688 4.46875 -1.640625 C 5.132812 -1.234375 5.894531 -1.03125 6.75 -1.03125 C 7.289062 -1.03125 7.722656 -1.070312 8.046875 -1.15625 C 8.367188 -1.25 8.6875 -1.378906 9 -1.546875 C 9.101562 -1.609375 9.28125 -1.742188 9.53125 -1.953125 C 9.65625 -2.054688 9.757812 -2.132812 9.84375 -2.1875 C 9.9375 -2.238281 10.035156 -2.265625 10.140625 -2.265625 C 10.316406 -2.265625 10.457031 -2.207031 10.5625 -2.09375 C 10.664062 -1.976562 10.71875 -1.832031 10.71875 -1.65625 C 10.71875 -1.40625 10.535156 -1.132812 10.171875 -0.84375 C 9.816406 -0.550781 9.328125 -0.300781 8.703125 -0.09375 C 8.078125 0.113281 7.382812 0.21875 6.625 0.21875 C 5.53125 0.21875 4.554688 -0.0351562 3.703125 -0.546875 C 2.847656 -1.066406 2.1875 -1.78125 1.71875 -2.6875 C 1.25 -3.601562 1.015625 -4.628906 1.015625 -5.765625 C 1.015625 -6.859375 1.253906 -7.859375 1.734375 -8.765625 C 2.210938 -9.671875 2.882812 -10.390625 3.75 -10.921875 C 4.613281 -11.460938 5.609375 -11.734375 6.734375 -11.734375 Z M 6.734375 -11.734375 "/></g></g><g style="fill:#000000;fill-opacity:1;"><g transform="translate(168.384656, 412.358461)"><path style="stroke:none" d="M 11.078125 -11.46875 C 11.273438 -11.46875 11.4375 -11.398438 11.5625 -11.265625 C 11.6875 -11.128906 11.75 -10.960938 11.75 -10.765625 L 11.75 -0.671875 C 11.75 -0.472656 11.6875 -0.3125 11.5625 -0.1875 C 11.4375 -0.0625 11.273438 0 11.078125 0 C 10.890625 0 10.726562 -0.0625 10.59375 -0.1875 C 10.46875 -0.3125 10.40625 -0.472656 10.40625 -0.671875 L 10.40625 -2.171875 C 10.03125 -1.503906 9.46875 -0.9375 8.71875 -0.46875 C 7.976562 -0.0078125 7.164062 0.21875 6.28125 0.21875 C 5.28125 0.21875 4.378906 -0.0390625 3.578125 -0.5625 C 2.773438 -1.082031 2.144531 -1.796875 1.6875 -2.703125 C 1.238281 -3.617188 1.015625 -4.644531 1.015625 -5.78125 C 1.015625 -6.925781 1.242188 -7.945312 1.703125 -8.84375 C 2.171875 -9.75 2.800781 -10.457031 3.59375 -10.96875 C 4.394531 -11.476562 5.285156 -11.734375 6.265625 -11.734375 C 7.160156 -11.734375 7.976562 -11.515625 8.71875 -11.078125 C 9.46875 -10.648438 10.03125 -10.082031 10.40625 -9.375 L 10.40625 -10.765625 C 10.40625 -10.960938 10.46875 -11.128906 10.59375 -11.265625 C 10.726562 -11.398438 10.890625 -11.46875 11.078125 -11.46875 Z M 6.421875 -1.03125 C 7.191406 -1.03125 7.890625 -1.234375 8.515625 -1.640625 C 9.140625 -2.054688 9.625 -2.625 9.96875 -3.34375 C 10.320312 -4.070312 10.5 -4.882812 10.5 -5.78125 C 10.5 -6.65625 10.320312 -7.453125 9.96875 -8.171875 C 9.625 -8.890625 9.140625 -9.453125 8.515625 -9.859375 C 7.890625 -10.273438 7.191406 -10.484375 6.421875 -10.484375 C 5.640625 -10.484375 4.9375 -10.28125 4.3125 -9.875 C 3.695312 -9.46875 3.210938 -8.910156 2.859375 -8.203125 C 2.503906 -7.492188 2.328125 -6.6875 2.328125 -5.78125 C 2.328125 -4.882812 2.5 -4.070312 2.84375 -3.34375 C 3.1875 -2.625 3.671875 -2.054688 4.296875 -1.640625 C 4.921875 -1.234375 5.628906 -1.03125 6.421875 -1.03125 Z M 6.421875 -1.03125 "/></g></g><g style="fill:#000000;fill-opacity:1;"><g transform="translate(196.523151, 412.358461)"><path style="stroke:none" d="M 3.25 -0.671875 C 3.25 -0.472656 3.1875 -0.3125 3.0625 -0.1875 C 2.9375 -0.0625 2.773438 0 2.578125 0 C 2.378906 0 2.21875 -0.0625 2.09375 -0.1875 C 1.96875 -0.3125 1.90625 -0.472656 1.90625 -0.671875 L 1.90625 -15.9375 C 1.90625 -16.125 1.96875 -16.28125 2.09375 -16.40625 C 2.21875 -16.539062 2.378906 -16.609375 2.578125 -16.609375 C 2.773438 -16.609375 2.9375 -16.539062 3.0625 -16.40625 C 3.1875 -16.28125 3.25 -16.125 3.25 -15.9375 Z M 3.25 -0.671875 "/></g></g><g style="fill:#000000;fill-opacity:1;"><g transform="translate(216.314324, 412.358461)"><path style="stroke:none" d=""/></g></g><g style="fill:#000000;fill-opacity:1;"><g transform="translate(237.070354, 412.358461)"><path style="stroke:none" d="M 4.015625 -10.171875 L 4.015625 -2.640625 C 4.015625 -2.078125 4.117188 -1.691406 4.328125 -1.484375 C 4.535156 -1.285156 4.8125 -1.1875 5.15625 -1.1875 C 5.25 -1.1875 5.363281 -1.203125 5.5 -1.234375 C 5.632812 -1.273438 5.738281 -1.296875 5.8125 -1.296875 C 5.945312 -1.296875 6.0625 -1.238281 6.15625 -1.125 C 6.257812 -1.019531 6.3125 -0.890625 6.3125 -0.734375 C 6.3125 -0.523438 6.191406 -0.347656 5.953125 -0.203125 C 5.710938 -0.0664062 5.425781 0 5.09375 0 C 4.6875 0 4.328125 -0.0351562 4.015625 -0.109375 C 3.703125 -0.179688 3.398438 -0.40625 3.109375 -0.78125 C 2.816406 -1.15625 2.671875 -1.753906 2.671875 -2.578125 L 2.671875 -10.171875 L 1.03125 -10.171875 C 0.851562 -10.171875 0.695312 -10.226562 0.5625 -10.34375 C 0.4375 -10.457031 0.375 -10.609375 0.375 -10.796875 C 0.375 -10.972656 0.4375 -11.117188 0.5625 -11.234375 C 0.695312 -11.359375 0.851562 -11.421875 1.03125 -11.421875 L 2.671875 -11.421875 L 2.671875 -13.90625 C 2.671875 -14.101562 2.734375 -14.265625 2.859375 -14.390625 C 2.984375 -14.515625 3.144531 -14.578125 3.34375 -14.578125 C 3.539062 -14.578125 3.703125 -14.515625 3.828125 -14.390625 C 3.953125 -14.265625 4.015625 -14.101562 4.015625 -13.90625 L 4.015625 -11.421875 L 6.265625 -11.421875 C 6.421875 -11.421875 6.5625 -11.351562 6.6875 -11.21875 C 6.820312 -11.082031 6.890625 -10.929688 6.890625 -10.765625 C 6.890625 -10.585938 6.828125 -10.441406 6.703125 -10.328125 C 6.585938 -10.222656 6.441406 -10.171875 6.265625 -10.171875 Z M 4.015625 -10.171875 "/></g></g><g style="fill:#000000;fill-opacity:1;"><g transform="translate(259.307369, 412.358461)"><path style="stroke:none" d="M 7.140625 -11.734375 C 7.429688 -11.734375 7.695312 -11.671875 7.9375 -11.546875 C 8.175781 -11.429688 8.296875 -11.253906 8.296875 -11.015625 C 8.296875 -10.804688 8.234375 -10.640625 8.109375 -10.515625 C 7.992188 -10.390625 7.859375 -10.328125 7.703125 -10.328125 C 7.617188 -10.328125 7.46875 -10.363281 7.25 -10.4375 C 7.039062 -10.507812 6.835938 -10.546875 6.640625 -10.546875 C 6.085938 -10.546875 5.535156 -10.332031 4.984375 -9.90625 C 4.441406 -9.476562 3.992188 -8.925781 3.640625 -8.25 C 3.296875 -7.582031 3.125 -6.90625 3.125 -6.21875 L 3.125 -0.671875 C 3.125 -0.472656 3.054688 -0.3125 2.921875 -0.1875 C 2.796875 -0.0625 2.640625 0 2.453125 0 C 2.253906 0 2.085938 -0.0625 1.953125 -0.1875 C 1.828125 -0.3125 1.765625 -0.472656 1.765625 -0.671875 L 1.765625 -10.71875 C 1.765625 -10.914062 1.828125 -11.078125 1.953125 -11.203125 C 2.085938 -11.328125 2.253906 -11.390625 2.453125 -11.390625 C 2.640625 -11.390625 2.796875 -11.328125 2.921875 -11.203125 C 3.054688 -11.078125 3.125 -10.914062 3.125 -10.71875 L 3.125 -8.75 C 3.46875 -9.601562 3.984375 -10.3125 4.671875 -10.875 C 5.367188 -11.4375 6.191406 -11.722656 7.140625 -11.734375 Z M 7.140625 -11.734375 "/></g></g><g style="fill:#000000;fill-opacity:1;"><g transform="translate(282.576578, 412.358461)"><path style="stroke:none" d="M 11.078125 -11.46875 C 11.273438 -11.46875 11.4375 -11.398438 11.5625 -11.265625 C 11.6875 -11.128906 11.75 -10.960938 11.75 -10.765625 L 11.75 -0.671875 C 11.75 -0.472656 11.6875 -0.3125 11.5625 -0.1875 C 11.4375 -0.0625 11.273438 0 11.078125 0 C 10.890625 0 10.726562 -0.0625 10.59375 -0.1875 C 10.46875 -0.3125 10.40625 -0.472656 10.40625 -0.671875 L 10.40625 -2.171875 C 10.03125 -1.503906 9.46875 -0.9375 8.71875 -0.46875 C 7.976562 -0.0078125 7.164062 0.21875 6.28125 0.21875 C 5.28125 0.21875 4.378906 -0.0390625 3.578125 -0.5625 C 2.773438 -1.082031 2.144531 -1.796875 1.6875 -2.703125 C 1.238281 -3.617188 1.015625 -4.644531 1.015625 -5.78125 C 1.015625 -6.925781 1.242188 -7.945312 1.703125 -8.84375 C 2.171875 -9.75 2.800781 -10.457031 3.59375 -10.96875 C 4.394531 -11.476562 5.285156 -11.734375 6.265625 -11.734375 C 7.160156 -11.734375 7.976562 -11.515625 8.71875 -11.078125 C 9.46875 -10.648438 10.03125 -10.082031 10.40625 -9.375 L 10.40625 -10.765625 C 10.40625 -10.960938 10.46875 -11.128906 10.59375 -11.265625 C 10.726562 -11.398438 10.890625 -11.46875 11.078125 -11.46875 Z M 6.421875 -1.03125 C 7.191406 -1.03125 7.890625 -1.234375 8.515625 -1.640625 C 9.140625 -2.054688 9.625 -2.625 9.96875 -3.34375 C 10.320312 -4.070312 10.5 -4.882812 10.5 -5.78125 C 10.5 -6.65625 10.320312 -7.453125 9.96875 -8.171875 C 9.625 -8.890625 9.140625 -9.453125 8.515625 -9.859375 C 7.890625 -10.273438 7.191406 -10.484375 6.421875 -10.484375 C 5.640625 -10.484375 4.9375 -10.28125 4.3125 -9.875 C 3.695312 -9.46875 3.210938 -8.910156 2.859375 -8.203125 C 2.503906 -7.492188 2.328125 -6.6875 2.328125 -5.78125 C 2.328125 -4.882812 2.5 -4.070312 2.84375 -3.34375 C 3.1875 -2.625 3.671875 -2.054688 4.296875 -1.640625 C 4.921875 -1.234375 5.628906 -1.03125 6.421875 -1.03125 Z M 6.421875 -1.03125 "/></g></g><g style="fill:#000000;fill-opacity:1;"><g transform="translate(310.715074, 412.358461)"><path style="stroke:none" d="M 7.1875 -11.734375 C 8.570312 -11.734375 9.585938 -11.328125 10.234375 -10.515625 C 10.890625 -9.703125 11.21875 -8.617188 11.21875 -7.265625 L 11.21875 -0.671875 C 11.21875 -0.472656 11.148438 -0.3125 11.015625 -0.1875 C 10.878906 -0.0625 10.722656 0 10.546875 0 C 10.347656 0 10.1875 -0.0625 10.0625 -0.1875 C 9.9375 -0.3125 9.875 -0.472656 9.875 -0.671875 L 9.875 -7.203125 C 9.875 -8.171875 9.628906 -8.957031 9.140625 -9.5625 C 8.660156 -10.175781 7.910156 -10.484375 6.890625 -10.484375 C 6.242188 -10.484375 5.632812 -10.332031 5.0625 -10.03125 C 4.488281 -9.726562 4.019531 -9.328125 3.65625 -8.828125 C 3.300781 -8.328125 3.125 -7.785156 3.125 -7.203125 L 3.125 -0.671875 C 3.125 -0.472656 3.054688 -0.3125 2.921875 -0.1875 C 2.796875 -0.0625 2.640625 0 2.453125 0 C 2.253906 0 2.085938 -0.0625 1.953125 -0.1875 C 1.828125 -0.3125 1.765625 -0.472656 1.765625 -0.671875 L 1.765625 -10.71875 C 1.765625 -10.914062 1.828125 -11.078125 1.953125 -11.203125 C 2.085938 -11.328125 2.253906 -11.390625 2.453125 -11.390625 C 2.640625 -11.390625 2.796875 -11.328125 2.921875 -11.203125 C 3.054688 -11.078125 3.125 -10.914062 3.125 -10.71875 L 3.125 -9.484375 C 3.519531 -10.128906 4.09375 -10.664062 4.84375 -11.09375 C 5.601562 -11.519531 6.382812 -11.734375 7.1875 -11.734375 Z M 7.1875 -11.734375 "/></g></g><g style="fill:#000000;fill-opacity:1;"><g transform="translate(338.315045, 412.358461)"><path style="stroke:none" d="M 1.125 -1.8125 C 1 -2.007812 0.9375 -2.175781 0.9375 -2.3125 C 0.9375 -2.507812 1.035156 -2.660156 1.234375 -2.765625 C 1.328125 -2.847656 1.445312 -2.890625 1.59375 -2.890625 C 1.769531 -2.890625 1.9375 -2.816406 2.09375 -2.671875 C 2.96875 -1.503906 4.140625 -0.921875 5.609375 -0.921875 C 6.328125 -0.921875 6.953125 -1.085938 7.484375 -1.421875 C 8.015625 -1.753906 8.28125 -2.242188 8.28125 -2.890625 C 8.28125 -3.523438 8.03125 -4 7.53125 -4.3125 C 7.039062 -4.625 6.351562 -4.890625 5.46875 -5.109375 C 4.226562 -5.429688 3.253906 -5.84375 2.546875 -6.34375 C 1.847656 -6.84375 1.5 -7.578125 1.5 -8.546875 C 1.5 -9.160156 1.671875 -9.707031 2.015625 -10.1875 C 2.359375 -10.675781 2.828125 -11.054688 3.421875 -11.328125 C 4.015625 -11.597656 4.6875 -11.734375 5.4375 -11.734375 C 6.070312 -11.734375 6.710938 -11.609375 7.359375 -11.359375 C 8.015625 -11.117188 8.578125 -10.726562 9.046875 -10.1875 C 9.179688 -10.082031 9.25 -9.929688 9.25 -9.734375 C 9.25 -9.554688 9.171875 -9.398438 9.015625 -9.265625 C 8.910156 -9.171875 8.773438 -9.125 8.609375 -9.125 C 8.460938 -9.125 8.332031 -9.1875 8.21875 -9.3125 C 7.851562 -9.71875 7.421875 -10.023438 6.921875 -10.234375 C 6.429688 -10.441406 5.90625 -10.546875 5.34375 -10.546875 C 4.632812 -10.546875 4.03125 -10.378906 3.53125 -10.046875 C 3.03125 -9.722656 2.78125 -9.234375 2.78125 -8.578125 C 2.8125 -7.972656 3.082031 -7.515625 3.59375 -7.203125 C 4.113281 -6.890625 4.875 -6.601562 5.875 -6.34375 C 6.65625 -6.15625 7.300781 -5.941406 7.8125 -5.703125 C 8.320312 -5.460938 8.734375 -5.125 9.046875 -4.6875 C 9.367188 -4.25 9.53125 -3.675781 9.53125 -2.96875 C 9.53125 -1.988281 9.140625 -1.210938 8.359375 -0.640625 C 7.585938 -0.0664062 6.625 0.21875 5.46875 0.21875 C 3.644531 0.21875 2.195312 -0.457031 1.125 -1.8125 Z M 1.125 -1.8125 "/></g></g><g style="fill:#000000;fill-opacity:1;"><g transform="translate(363.469146, 412.358461)"><path style="stroke:none" d="M 3.25 -0.671875 C 3.25 -0.472656 3.1875 -0.3125 3.0625 -0.1875 C 2.9375 -0.0625 2.773438 0 2.578125 0 C 2.378906 0 2.21875 -0.0625 2.09375 -0.1875 C 1.96875 -0.3125 1.90625 -0.472656 1.90625 -0.671875 L 1.90625 -15.9375 C 1.90625 -16.125 1.96875 -16.28125 2.09375 -16.40625 C 2.21875 -16.539062 2.378906 -16.609375 2.578125 -16.609375 C 2.773438 -16.609375 2.9375 -16.539062 3.0625 -16.40625 C 3.1875 -16.28125 3.25 -16.125 3.25 -15.9375 Z M 3.25 -0.671875 "/></g></g><g style="fill:#000000;fill-opacity:1;"><g transform="translate(383.260318, 412.358461)"><path style="stroke:none" d="M 11.078125 -11.46875 C 11.273438 -11.46875 11.4375 -11.398438 11.5625 -11.265625 C 11.6875 -11.128906 11.75 -10.960938 11.75 -10.765625 L 11.75 -0.671875 C 11.75 -0.472656 11.6875 -0.3125 11.5625 -0.1875 C 11.4375 -0.0625 11.273438 0 11.078125 0 C 10.890625 0 10.726562 -0.0625 10.59375 -0.1875 C 10.46875 -0.3125 10.40625 -0.472656 10.40625 -0.671875 L 10.40625 -2.171875 C 10.03125 -1.503906 9.46875 -0.9375 8.71875 -0.46875 C 7.976562 -0.0078125 7.164062 0.21875 6.28125 0.21875 C 5.28125 0.21875 4.378906 -0.0390625 3.578125 -0.5625 C 2.773438 -1.082031 2.144531 -1.796875 1.6875 -2.703125 C 1.238281 -3.617188 1.015625 -4.644531 1.015625 -5.78125 C 1.015625 -6.925781 1.242188 -7.945312 1.703125 -8.84375 C 2.171875 -9.75 2.800781 -10.457031 3.59375 -10.96875 C 4.394531 -11.476562 5.285156 -11.734375 6.265625 -11.734375 C 7.160156 -11.734375 7.976562 -11.515625 8.71875 -11.078125 C 9.46875 -10.648438 10.03125 -10.082031 10.40625 -9.375 L 10.40625 -10.765625 C 10.40625 -10.960938 10.46875 -11.128906 10.59375 -11.265625 C 10.726562 -11.398438 10.890625 -11.46875 11.078125 -11.46875 Z M 6.421875 -1.03125 C 7.191406 -1.03125 7.890625 -1.234375 8.515625 -1.640625 C 9.140625 -2.054688 9.625 -2.625 9.96875 -3.34375 C 10.320312 -4.070312 10.5 -4.882812 10.5 -5.78125 C 10.5 -6.65625 10.320312 -7.453125 9.96875 -8.171875 C 9.625 -8.890625 9.140625 -9.453125 8.515625 -9.859375 C 7.890625 -10.273438 7.191406 -10.484375 6.421875 -10.484375 C 5.640625 -10.484375 4.9375 -10.28125 4.3125 -9.875 C 3.695312 -9.46875 3.210938 -8.910156 2.859375 -8.203125 C 2.503906 -7.492188 2.328125 -6.6875 2.328125 -5.78125 C 2.328125 -4.882812 2.5 -4.070312 2.84375 -3.34375 C 3.1875 -2.625 3.671875 -2.054688 4.296875 -1.640625 C 4.921875 -1.234375 5.628906 -1.03125 6.421875 -1.03125 Z M 6.421875 -1.03125 "/></g></g><g style="fill:#000000;fill-opacity:1;"><g transform="translate(411.398814, 412.358461)"><path style="stroke:none" d="M 4.015625 -10.171875 L 4.015625 -2.640625 C 4.015625 -2.078125 4.117188 -1.691406 4.328125 -1.484375 C 4.535156 -1.285156 4.8125 -1.1875 5.15625 -1.1875 C 5.25 -1.1875 5.363281 -1.203125 5.5 -1.234375 C 5.632812 -1.273438 5.738281 -1.296875 5.8125 -1.296875 C 5.945312 -1.296875 6.0625 -1.238281 6.15625 -1.125 C 6.257812 -1.019531 6.3125 -0.890625 6.3125 -0.734375 C 6.3125 -0.523438 6.191406 -0.347656 5.953125 -0.203125 C 5.710938 -0.0664062 5.425781 0 5.09375 0 C 4.6875 0 4.328125 -0.0351562 4.015625 -0.109375 C 3.703125 -0.179688 3.398438 -0.40625 3.109375 -0.78125 C 2.816406 -1.15625 2.671875 -1.753906 2.671875 -2.578125 L 2.671875 -10.171875 L 1.03125 -10.171875 C 0.851562 -10.171875 0.695312 -10.226562 0.5625 -10.34375 C 0.4375 -10.457031 0.375 -10.609375 0.375 -10.796875 C 0.375 -10.972656 0.4375 -11.117188 0.5625 -11.234375 C 0.695312 -11.359375 0.851562 -11.421875 1.03125 -11.421875 L 2.671875 -11.421875 L 2.671875 -13.90625 C 2.671875 -14.101562 2.734375 -14.265625 2.859375 -14.390625 C 2.984375 -14.515625 3.144531 -14.578125 3.34375 -14.578125 C 3.539062 -14.578125 3.703125 -14.515625 3.828125 -14.390625 C 3.953125 -14.265625 4.015625 -14.101562 4.015625 -13.90625 L 4.015625 -11.421875 L 6.265625 -11.421875 C 6.421875 -11.421875 6.5625 -11.351562 6.6875 -11.21875 C 6.820312 -11.082031 6.890625 -10.929688 6.890625 -10.765625 C 6.890625 -10.585938 6.828125 -10.441406 6.703125 -10.328125 C 6.585938 -10.222656 6.441406 -10.171875 6.265625 -10.171875 Z M 4.015625 -10.171875 "/></g></g><g style="fill:#000000;fill-opacity:1;"><g transform="translate(433.635828, 412.358461)"><path style="stroke:none" d="M 3.078125 -0.671875 C 3.078125 -0.472656 3.007812 -0.3125 2.875 -0.1875 C 2.75 -0.0625 2.59375 0 2.40625 0 C 2.207031 0 2.046875 -0.0625 1.921875 -0.1875 C 1.796875 -0.3125 1.734375 -0.472656 1.734375 -0.671875 L 1.734375 -11 C 1.734375 -11.1875 1.796875 -11.34375 1.921875 -11.46875 C 2.046875 -11.601562 2.207031 -11.671875 2.40625 -11.671875 C 2.59375 -11.671875 2.75 -11.601562 2.875 -11.46875 C 3.007812 -11.34375 3.078125 -11.1875 3.078125 -11 Z M 2.390625 -13.171875 C 2.097656 -13.171875 1.867188 -13.242188 1.703125 -13.390625 C 1.535156 -13.535156 1.453125 -13.742188 1.453125 -14.015625 L 1.453125 -14.234375 C 1.453125 -14.503906 1.535156 -14.707031 1.703125 -14.84375 C 1.878906 -14.988281 2.117188 -15.0625 2.421875 -15.0625 C 3.015625 -15.0625 3.3125 -14.785156 3.3125 -14.234375 L 3.3125 -14.015625 C 3.3125 -13.742188 3.234375 -13.535156 3.078125 -13.390625 C 2.921875 -13.242188 2.691406 -13.171875 2.390625 -13.171875 Z M 2.390625 -13.171875 "/></g></g><g style="fill:#000000;fill-opacity:1;"><g transform="translate(453.067975, 412.358461)"><path style="stroke:none" d="M 12.359375 -5.75 C 12.359375 -4.625 12.109375 -3.601562 11.609375 -2.6875 C 11.117188 -1.78125 10.441406 -1.066406 9.578125 -0.546875 C 8.710938 -0.0351562 7.75 0.21875 6.6875 0.21875 C 5.625 0.21875 4.65625 -0.0351562 3.78125 -0.546875 C 2.914062 -1.066406 2.238281 -1.78125 1.75 -2.6875 C 1.257812 -3.601562 1.015625 -4.625 1.015625 -5.75 C 1.015625 -6.863281 1.257812 -7.878906 1.75 -8.796875 C 2.238281 -9.710938 2.914062 -10.429688 3.78125 -10.953125 C 4.65625 -11.472656 5.625 -11.734375 6.6875 -11.734375 C 7.75 -11.734375 8.710938 -11.472656 9.578125 -10.953125 C 10.441406 -10.429688 11.117188 -9.710938 11.609375 -8.796875 C 12.109375 -7.878906 12.359375 -6.863281 12.359375 -5.75 Z M 11.015625 -5.75 C 11.015625 -6.644531 10.828125 -7.453125 10.453125 -8.171875 C 10.078125 -8.890625 9.554688 -9.453125 8.890625 -9.859375 C 8.222656 -10.273438 7.488281 -10.484375 6.6875 -10.484375 C 5.875 -10.484375 5.140625 -10.273438 4.484375 -9.859375 C 3.828125 -9.453125 3.304688 -8.890625 2.921875 -8.171875 C 2.546875 -7.453125 2.359375 -6.644531 2.359375 -5.75 C 2.359375 -4.863281 2.546875 -4.0625 2.921875 -3.34375 C 3.304688 -2.625 3.828125 -2.054688 4.484375 -1.640625 C 5.140625 -1.234375 5.875 -1.03125 6.6875 -1.03125 C 7.488281 -1.03125 8.222656 -1.234375 8.890625 -1.640625 C 9.554688 -2.046875 10.078125 -2.601562 10.453125 -3.3125 C 10.828125 -4.03125 11.015625 -4.84375 11.015625 -5.75 Z M 11.015625 -5.75 "/></g></g><g style="fill:#000000;fill-opacity:1;"><g transform="translate(481.049399, 412.358461)"><path style="stroke:none" d="M 7.1875 -11.734375 C 8.570312 -11.734375 9.585938 -11.328125 10.234375 -10.515625 C 10.890625 -9.703125 11.21875 -8.617188 11.21875 -7.265625 L 11.21875 -0.671875 C 11.21875 -0.472656 11.148438 -0.3125 11.015625 -0.1875 C 10.878906 -0.0625 10.722656 0 10.546875 0 C 10.347656 0 10.1875 -0.0625 10.0625 -0.1875 C 9.9375 -0.3125 9.875 -0.472656 9.875 -0.671875 L 9.875 -7.203125 C 9.875 -8.171875 9.628906 -8.957031 9.140625 -9.5625 C 8.660156 -10.175781 7.910156 -10.484375 6.890625 -10.484375 C 6.242188 -10.484375 5.632812 -10.332031 5.0625 -10.03125 C 4.488281 -9.726562 4.019531 -9.328125 3.65625 -8.828125 C 3.300781 -8.328125 3.125 -7.785156 3.125 -7.203125 L 3.125 -0.671875 C 3.125 -0.472656 3.054688 -0.3125 2.921875 -0.1875 C 2.796875 -0.0625 2.640625 0 2.453125 0 C 2.253906 0 2.085938 -0.0625 1.953125 -0.1875 C 1.828125 -0.3125 1.765625 -0.472656 1.765625 -0.671875 L 1.765625 -10.71875 C 1.765625 -10.914062 1.828125 -11.078125 1.953125 -11.203125 C 2.085938 -11.328125 2.253906 -11.390625 2.453125 -11.390625 C 2.640625 -11.390625 2.796875 -11.328125 2.921875 -11.203125 C 3.054688 -11.078125 3.125 -10.914062 3.125 -10.71875 L 3.125 -9.484375 C 3.519531 -10.128906 4.09375 -10.664062 4.84375 -11.09375 C 5.601562 -11.519531 6.382812 -11.734375 7.1875 -11.734375 Z M 7.1875 -11.734375 "/></g></g><g style="fill:#000000;fill-opacity:1;"><g transform="translate(508.64937, 412.358461)"><path style="stroke:none" d="M 1.125 -1.8125 C 1 -2.007812 0.9375 -2.175781 0.9375 -2.3125 C 0.9375 -2.507812 1.035156 -2.660156 1.234375 -2.765625 C 1.328125 -2.847656 1.445312 -2.890625 1.59375 -2.890625 C 1.769531 -2.890625 1.9375 -2.816406 2.09375 -2.671875 C 2.96875 -1.503906 4.140625 -0.921875 5.609375 -0.921875 C 6.328125 -0.921875 6.953125 -1.085938 7.484375 -1.421875 C 8.015625 -1.753906 8.28125 -2.242188 8.28125 -2.890625 C 8.28125 -3.523438 8.03125 -4 7.53125 -4.3125 C 7.039062 -4.625 6.351562 -4.890625 5.46875 -5.109375 C 4.226562 -5.429688 3.253906 -5.84375 2.546875 -6.34375 C 1.847656 -6.84375 1.5 -7.578125 1.5 -8.546875 C 1.5 -9.160156 1.671875 -9.707031 2.015625 -10.1875 C 2.359375 -10.675781 2.828125 -11.054688 3.421875 -11.328125 C 4.015625 -11.597656 4.6875 -11.734375 5.4375 -11.734375 C 6.070312 -11.734375 6.710938 -11.609375 7.359375 -11.359375 C 8.015625 -11.117188 8.578125 -10.726562 9.046875 -10.1875 C 9.179688 -10.082031 9.25 -9.929688 9.25 -9.734375 C 9.25 -9.554688 9.171875 -9.398438 9.015625 -9.265625 C 8.910156 -9.171875 8.773438 -9.125 8.609375 -9.125 C 8.460938 -9.125 8.332031 -9.1875 8.21875 -9.3125 C 7.851562 -9.71875 7.421875 -10.023438 6.921875 -10.234375 C 6.429688 -10.441406 5.90625 -10.546875 5.34375 -10.546875 C 4.632812 -10.546875 4.03125 -10.378906 3.53125 -10.046875 C 3.03125 -9.722656 2.78125 -9.234375 2.78125 -8.578125 C 2.8125 -7.972656 3.082031 -7.515625 3.59375 -7.203125 C 4.113281 -6.890625 4.875 -6.601562 5.875 -6.34375 C 6.65625 -6.15625 7.300781 -5.941406 7.8125 -5.703125 C 8.320312 -5.460938 8.734375 -5.125 9.046875 -4.6875 C 9.367188 -4.25 9.53125 -3.675781 9.53125 -2.96875 C 9.53125 -1.988281 9.140625 -1.210938 8.359375 -0.640625 C 7.585938 -0.0664062 6.625 0.21875 5.46875 0.21875 C 3.644531 0.21875 2.195312 -0.457031 1.125 -1.8125 Z M 1.125 -1.8125 "/></g></g></g></svg>